<svg version="1.1"  fill="#ffffff"   xmlns="http://www.w3.org/2000/svg" xmlns:xlink="http://www.w3.org/1999/xlink" class="thumbnail-icon" viewBox="0 0.8525238037109375 200 198.29495239257812"><g data-paper-data="{&quot;fillRule&quot;:&quot;evenodd&quot;,&quot;isIcon&quot;:&quot;true&quot;,&quot;iconType&quot;:&quot;icon&quot;,&quot;rawIconId&quot;:&quot;550249ce-54cb-4e81-b87c-4642a3fcdfdd&quot;,&quot;selectedEffects&quot;:{&quot;container&quot;:&quot;&quot;,&quot;transformation&quot;:&quot;&quot;,&quot;pattern&quot;:&quot;&quot;},&quot;isDetailed&quot;:false,&quot;bounds&quot;:{&quot;x&quot;:199.66378211735986,&quot;y&quot;:119.03774601976204,&quot;width&quot;:150.67243576528034,&quot;height&quot;:149.38843205176607},&quot;iconStyle&quot;:&quot;standalone&quot;}"><path d="M0,100c0,-54.75775 44.38981,-99.14748 99.14748,-99.14748c23.09233,0 44.34066,7.89472 61.19399,21.13174c-12.83444,-7.14589 -27.61555,-11.2173 -43.34746,-11.2173c-49.28189,0 -89.23273,39.95153 -89.23273,89.23304c0,49.28189 39.95084,89.23273 89.23273,89.23273c15.73191,0 30.51301,-4.0711 43.34746,-11.21737c-16.85334,13.23755 -38.10166,21.13212 -61.19399,21.13212c-54.75767,0 -99.14748,-44.38981 -99.14748,-99.14748zM200,100c0,43.80612 -35.51179,79.31798 -79.31784,79.31798c-18.47391,0 -35.47268,-6.3157 -48.95496,-16.9057c10.26733,5.71701 22.09213,8.97391 34.67772,8.97391c39.42559,0 71.3865,-31.96069 71.3865,-71.38621c0,-39.42567 -31.96091,-71.38582 -71.3865,-71.38582c-12.58559,0 -24.4104,3.25636 -34.67772,8.97384c13.48229,-10.59022 30.48106,-16.90585 48.95496,-16.90585c43.80604,0 79.31784,35.51179 79.31784,79.31784zM54.93316,131.32319h17.44236l5.66192,-40.18135h0.4566l5.20531,40.18135h22.00842l16.62047,-40.18135h0.36529l-5.66192,40.18135h19.17746l8.85816,-62.64638h-31.59715l-13.60686,33.42358h-0.36529l-4.29209,-33.42358h-31.41451z" fill-rule="evenodd"></path></g></svg>