<svg xmlns:mydata="http://www.w3.org/2000/svg" mydata:contrastcolor="ffffff" mydata:template="Contrast" mydata:presentation="2.5" mydata:layouttype="undefined" mydata:specialfontid="undefined" mydata:id1="557" mydata:id2="176" mydata:companyname="Mix Shot" mydata:companytagline="" version="1.1" xmlns="http://www.w3.org/2000/svg" xmlns:xlink="http://www.w3.org/1999/xlink" viewBox="0 0 550 470" style="background-color: rgb(60, 30, 62); background-image: radial-gradient(circle closest-side at center center, rgba(209, 7, 84, 0.65) 0%, rgba(209, 7, 84, 0.12) 70%, rgb(60, 30, 62) 100%);"><defs style="animation-play-state: running;"><filter id="electric-filter" x="-50%" y="-50%" width="200%" height="200%" style="animation-play-state: running;">
                <feFlood flood-color="#ffffff" result="flood-white" style="animation-play-state: running;"></feFlood>
                <feFlood flood-color="#07d165" result="flood-accent" style="animation-play-state: running;"></feFlood>
                <feComposite operator="out" in="flood-accent" in2="SourceAlpha" result="comp" style="animation-play-state: running;"></feComposite>
                <feGaussianBlur in="comp" result="comp" stdDeviation="0.4" style="animation-play-state: running;"></feGaussianBlur>
                <feComposite operator="in" in="comp" in2="SourceAlpha" result="comp" style="animation-play-state: running;"></feComposite>
                <feComposite operator="in" in="flood-white" in2="SourceAlpha" result="comp2" style="animation-play-state: running;"></feComposite>
                <feGaussianBlur in="comp2" result="comp2" stdDeviation="0.4" style="animation-play-state: running;"></feGaussianBlur>
                <feBlend in="comp" in2="comp2" result="output" mode="screen" style="animation-play-state: running;"></feBlend>
            </filter>
            <filter id="electric-electric" x="-50%" y="-50%" width="200%" height="200%" style="animation-play-state: running;">
                <feTurbulence baseFrequency="0.08" type="fractalNoise" numOctaves="1" seed="1" result="noise" style="animation-play-state: running;"></feTurbulence>
                <feColorMatrix in="noise" result="noise" type="hueRotate" values="90" style="animation-play-state: running;">
                    <animate attributeType="XML" attributeName="values" values="0;180;360" dur="3s" repeatCount="indefinite" style="animation-play-state: running;"></animate>
                </feColorMatrix>
                <feDisplacementMap in="SourceGraphic" xChannelSelector="R" in2="noise" scale="13" result="lines" style="animation-play-state: running;"></feDisplacementMap>
                <feGaussianBlur in="lines" result="output" stdDeviation="10" style="animation-play-state: running;"></feGaussianBlur>
                <feBlend in="lines" in2="output" result="output" mode="screen" style="animation-play-state: running;"></feBlend>
            </filter></defs><g fill="none" fill-rule="none" stroke="none" stroke-width="1" stroke-linecap="butt" stroke-linejoin="miter" stroke-miterlimit="10" stroke-dasharray="" stroke-dashoffset="0" font-family="none" font-weight="none" font-size="none" text-anchor="none" style="mix-blend-mode: normal; animation-play-state: running;"><g data-paper-data="{&quot;isGlobalGroup&quot;:true,&quot;bounds&quot;:{&quot;x&quot;:65,&quot;y&quot;:119.03774601976204,&quot;width&quot;:420,&quot;height&quot;:231.92450796047598}}" style="animation-play-state: running;"><g data-paper-data="{&quot;isPrimaryText&quot;:true}" fill-rule="nonzero" style="animation-play-state: running;"><path d="M106.32126,298.75128l-16.63292,18.94513l-16.40916,-19.01971v12.97816l-8.27917,-9.32339v48.63079h10.29302v-34.08631l14.54449,16.33458l14.4699,-16.33458v34.08631h10.29302v-48.63079l-8.27917,9.32339zM67.01385,348.9484v-41.32126l6.26532,7.01119v34.31007zM75.29302,313.89246v-9.77091l14.39531,16.63292l14.61907,-16.70751v9.8455l-14.4699,16.25999zM106.32126,314.63833l6.26532,-7.01119v41.32126h-6.26532z" data-paper-data="{&quot;glyphName&quot;:&quot;M&quot;,&quot;glyphIndex&quot;:0,&quot;firstGlyphOfWord&quot;:true,&quot;word&quot;:1}" fill="#ff671f" style="animation-play-state: running;"></path><path d="M136.30527,350.96225v-52.28556h-10.29302v52.28556zM128.02611,348.9484v-48.25786h6.26532v48.25786z" data-paper-data="{&quot;glyphName&quot;:&quot;I&quot;,&quot;glyphIndex&quot;:1,&quot;word&quot;:1}" fill="#ff671f" style="animation-play-state: running;"></path><path d="M200.59936,298.67669h-13.57485l-9.39798,10.21843v11.03889h-5.89238v-0.07459v-10.9643l-9.39798,-10.21843h-13.57485l20.95898,23.04742v6.26532l-20.95898,22.97283h13.57485l9.39798,-10.21843v-10.88972h5.89238v10.88972l9.39798,10.21843h13.57485l-20.95898,-22.97283v-6.26532zM187.91955,300.69054h8.12999l-16.40916,17.97549v-8.95045zM169.7203,309.71558v8.95045l-16.40916,-17.97549h8.12999zM161.44113,348.9484h-8.12999l16.40916,-17.97549v8.95045zM171.73415,321.94787h5.89238v5.89238h-5.89238zM179.64038,339.92336v-8.95045l16.40916,17.97549h-8.12999z" data-paper-data="{&quot;glyphName&quot;:&quot;X&quot;,&quot;glyphIndex&quot;:2,&quot;lastGlyphOfWord&quot;:true,&quot;word&quot;:1}" fill="#ff671f" style="animation-play-state: running;"></path><path d="M285.03197,350.96225c4.84816,0 9.69632,-3.65477 9.47256,-9.02504c3.35642,-1.56633 5.37027,-5.29568 4.69899,-8.87587c-1.49174,-7.30954 -7.23495,-4.99734 -37.06979,-19.31806c-2.08844,-0.96963 -3.95312,-2.38679 -4.6244,-4.69899c0.74587,0 -0.5967,-0.07459 42.29089,-0.07459v-10.29302h-34.83218c-5.37027,0 -9.92009,3.05807 -9.69632,8.80128c-3.80394,1.26798 -5.96697,4.92275 -5.14651,9.17421c0.82046,3.95312 4.92275,5.74321 5.14651,5.74321c29.08897,12.60522 29.08897,12.45605 32.29622,13.94779c2.08844,0.82046 3.72936,1.86468 4.54981,4.17688c-0.82046,0.29835 0.67128,0 -42.58924,0v10.44219zM251.54235,348.9484v-6.41449c41.54502,0 39.97869,0.22376 40.94832,0c0,3.95312 -4.10229,6.41449 -7.45871,6.41449zM255.57006,309.49182c0.67128,2.9089 2.98348,4.69899 5.66862,6.11614c8.35376,4.17688 29.76026,12.60522 30.72989,12.82898c2.46137,0.96963 4.54981,1.79009 5.2211,5.07192c0.52211,2.46137 -0.82046,5.07192 -3.13266,6.3399c-0.96963,-2.61055 -2.75972,-4.17688 -5.66862,-5.37027c-1.11881,-0.37294 -11.41183,-5.07192 -32.3708,-13.94779c-0.07459,0 -3.35642,-1.34257 -3.87853,-4.25147c-0.5967,-3.20725 0.74587,-5.66862 3.43101,-6.78743zM297.78636,300.69054v6.26532c-40.72456,0 -39.60575,0.07459 -40.5008,0.07459c0,-4.17688 3.50559,-6.3399 7.68247,-6.3399z" data-paper-data="{&quot;glyphName&quot;:&quot;S&quot;,&quot;glyphIndex&quot;:3,&quot;firstGlyphOfWord&quot;:true,&quot;word&quot;:2}" fill="#101820" style="animation-play-state: running;"></path><path d="M351.78743,319.71026h-29.76026v-21.03356h-10.29302v22.97283v0.07459l8.27917,-0.07459v6.3399h-8.27917v22.97283h10.29302v-20.95898h29.76026v20.95898h10.29302v-22.97283h-8.27917v-6.3399h8.27917v-22.97283h-10.29302zM313.748,300.69054h6.26532v19.01971h-6.26532zM313.748,348.9484v-18.94513h6.26532v18.94513zM360.0666,348.9484h-6.26532v-18.94513h6.26532zM322.02717,327.98942v-6.3399h29.76026v6.3399zM353.80128,300.69054h6.26532v19.01971h-6.26532z" data-paper-data="{&quot;glyphName&quot;:&quot;H&quot;,&quot;glyphIndex&quot;:4,&quot;word&quot;:2}" fill="#101820" style="animation-play-state: running;"></path><path d="M421.15344,321.72411h2.46137c-0.22376,-1.19339 -0.22376,-1.64092 -0.44752,-2.46137c-2.61055,-12.00852 -13.20192,-20.58604 -25.58338,-20.58604c-12.30687,0 -22.59989,8.42834 -25.4342,20.21311c-0.22376,0.96963 -0.29835,1.56633 -0.52211,2.83431h8.27917c-0.37294,2.01385 -0.37294,4.10229 0,6.26532h-8.27917c0.22376,1.26798 0.14917,1.49174 0.37294,2.01385c2.38679,12.23229 13.05274,20.95898 25.58338,20.95898c12.60522,0 23.04742,-8.72669 25.65796,-20.88439c0.07459,-0.5967 0.07459,-0.89505 0.29835,-2.08844h-8.27917c0.37294,-2.01385 0.37294,-4.10229 0,-6.26532zM397.58391,300.69054c11.33724,0 21.18274,7.90623 23.56953,19.01971h-6.3399c-2.23761,-7.60788 -9.2488,-12.82898 -17.22962,-12.82898c-7.98082,0 -14.91742,5.2211 -17.15503,12.82898h-6.41449c2.38679,-11.11348 12.23229,-19.01971 23.56953,-19.01971zM382.51731,319.71026c2.23761,-6.41449 8.12999,-10.81513 15.0666,-10.81513c7.01119,0 12.90357,4.40064 15.14118,10.81513zM413.2472,321.72411c0.37294,2.01385 0.52211,4.10229 0,6.26532h-31.252c-0.44752,-2.01385 -0.44752,-4.10229 0,-6.26532zM412.72509,329.92869c-2.16303,6.48908 -8.20458,10.81513 -15.14118,10.81513c-6.86201,0 -12.90357,-4.40064 -15.0666,-10.74054zM397.58391,348.9484c-11.33724,0 -21.18274,-7.90623 -23.56953,-18.94513h6.41449c2.16303,7.5333 9.17421,12.7544 17.15503,12.7544c7.98082,0 14.99201,-5.2211 17.22962,-12.82898h6.3399c-2.38679,11.11348 -12.00852,19.01971 -23.56953,19.01971z" data-paper-data="{&quot;glyphName&quot;:&quot;O&quot;,&quot;glyphIndex&quot;:5,&quot;word&quot;:2}" fill="#101820" style="animation-play-state: running;"></path><path d="M443.15663,298.67669v8.27917h-8.27917v14.76825h8.27917v6.26532h-8.27917v22.97283h10.29302v-20.95898h24.16622c8.6521,0 15.66329,-7.01119 15.66329,-15.66329c0,-8.6521 -7.01119,-15.66329 -15.66329,-15.66329zM445.17048,308.96971h4.25147h19.91476c2.98348,0 5.44486,2.38679 5.44486,5.37027c0,2.98348 -2.46137,5.37027 -5.44486,5.37027h-24.16622zM436.89132,319.71026v-10.74054h6.26532v10.74054zM443.15663,348.9484h-6.26532v-18.94513h6.26532zM445.17048,327.98942v-6.26532h24.16622c4.17688,0 7.38412,-3.20725 7.38412,-7.38412c0,-3.95312 -3.20725,-7.38412 -7.38412,-7.38412h-19.91476h-4.25147v-6.26532h24.16622c7.5333,0 13.72403,6.11614 13.72403,13.64944c0,7.5333 -6.19073,13.64944 -13.72403,13.64944z" data-paper-data="{&quot;glyphName&quot;:&quot;P&quot;,&quot;glyphIndex&quot;:6,&quot;lastGlyphOfWord&quot;:true,&quot;word&quot;:2}" fill="#101820" style="animation-play-state: running;"></path></g><g data-paper-data="{&quot;isIcon&quot;:&quot;true&quot;,&quot;iconType&quot;:&quot;icon&quot;,&quot;rawIconId&quot;:&quot;550249ce-54cb-4e81-b87c-4642a3fcdfdd&quot;,&quot;selectedEffects&quot;:{&quot;container&quot;:&quot;&quot;,&quot;transformation&quot;:&quot;&quot;,&quot;pattern&quot;:&quot;&quot;},&quot;isDetailed&quot;:false,&quot;fillRule&quot;:&quot;evenodd&quot;,&quot;bounds&quot;:{&quot;x&quot;:199.66378211735986,&quot;y&quot;:119.03774601976204,&quot;width&quot;:150.67243576528034,&quot;height&quot;:149.38843205176607},&quot;iconStyle&quot;:&quot;standalone&quot;,&quot;suitableAsStandaloneIcon&quot;:true}" fill-rule="evenodd" style="animation-play-state: running;"><g data-paper-data="{&quot;isPathIcon&quot;:true}" style="animation-play-state: running;"><path d="M274.358,119.03775c-41.25312,0 -74.69422,33.4411 -74.69422,74.69422c0,41.25212 33.4411,74.69422 74.69422,74.69422c17.39705,0 33.4041,-5.94802 46.10113,-15.92005c-9.66903,5.38302 -20.80506,8.45002 -32.65609,8.45002c-37.12711,0 -67.22519,-30.09709 -67.22519,-67.22419c0,-37.12711 30.09809,-67.22519 67.22519,-67.22519c11.85103,0 22.98707,3.06701 32.65609,8.45102c-12.69704,-9.97303 -28.70408,-15.92005 -46.10113,-15.92005z" fill="#ff671f" style="animation-play-state: running;"></path><path d="M290.58105,253.48713c33.0021,0 59.75517,-26.75308 59.75517,-59.75517c0,-33.0021 -26.75308,-59.75517 -59.75517,-59.75517c-13.91704,0 -26.72408,4.75801 -36.88111,12.73604c7.73502,-4.30701 16.64405,-6.76102 26.12508,-6.76102c29.70209,0 53.78016,24.07807 53.78016,53.78016c0,29.70109 -24.07807,53.77916 -53.78016,53.77916c-9.48103,0 -18.39005,-2.45301 -26.12508,-6.76002c10.15703,7.97802 22.96407,12.73604 36.88111,12.73604z" fill="#101820" style="animation-play-state: running;"></path><path d="M274.622,195.31397l-3.23401,-25.18007h-23.66607l-6.67402,47.19514h13.14104l4.26501,-30.27109h0.344l3.92201,30.27109h16.58005l12.52104,-30.27109h0.275l-4.26501,30.27109h14.44804l6.67302,-47.19514h-23.80407l-10.25103,25.18007z" fill="#101820" style="animation-play-state: running;"></path></g></g></g></g><g fill-rule="none" font-family="none" font-weight="none" font-size="none" text-anchor="none" style="mix-blend-mode: normal; animation-play-state: running;" filter="url(#electric-electric)" fill="none" stroke="#d10754" stroke-width="2.5"><g data-paper-data="{&quot;isGlobalGroup&quot;:true,&quot;bounds&quot;:{&quot;x&quot;:65,&quot;y&quot;:119.03774601976204,&quot;width&quot;:420,&quot;height&quot;:231.92450796047598}}" style="animation-play-state: running;"><g data-paper-data="{&quot;isPrimaryText&quot;:true}" fill-rule="nonzero" style="animation-play-state: running;"><path d="M106.32126,298.75128l-16.63292,18.94513l-16.40916,-19.01971v12.97816l-8.27917,-9.32339v48.63079h10.29302v-34.08631l14.54449,16.33458l14.4699,-16.33458v34.08631h10.29302v-48.63079l-8.27917,9.32339zM67.01385,348.9484v-41.32126l6.26532,7.01119v34.31007zM75.29302,313.89246v-9.77091l14.39531,16.63292l14.61907,-16.70751v9.8455l-14.4699,16.25999zM106.32126,314.63833l6.26532,-7.01119v41.32126h-6.26532z" data-paper-data="{&quot;glyphName&quot;:&quot;M&quot;,&quot;glyphIndex&quot;:0,&quot;firstGlyphOfWord&quot;:true,&quot;word&quot;:1}" style="animation-play-state: running;"></path><path d="M136.30527,350.96225v-52.28556h-10.29302v52.28556zM128.02611,348.9484v-48.25786h6.26532v48.25786z" data-paper-data="{&quot;glyphName&quot;:&quot;I&quot;,&quot;glyphIndex&quot;:1,&quot;word&quot;:1}" style="animation-play-state: running;"></path><path d="M200.59936,298.67669h-13.57485l-9.39798,10.21843v11.03889h-5.89238v-0.07459v-10.9643l-9.39798,-10.21843h-13.57485l20.95898,23.04742v6.26532l-20.95898,22.97283h13.57485l9.39798,-10.21843v-10.88972h5.89238v10.88972l9.39798,10.21843h13.57485l-20.95898,-22.97283v-6.26532zM187.91955,300.69054h8.12999l-16.40916,17.97549v-8.95045zM169.7203,309.71558v8.95045l-16.40916,-17.97549h8.12999zM161.44113,348.9484h-8.12999l16.40916,-17.97549v8.95045zM171.73415,321.94787h5.89238v5.89238h-5.89238zM179.64038,339.92336v-8.95045l16.40916,17.97549h-8.12999z" data-paper-data="{&quot;glyphName&quot;:&quot;X&quot;,&quot;glyphIndex&quot;:2,&quot;lastGlyphOfWord&quot;:true,&quot;word&quot;:1}" style="animation-play-state: running;"></path><path d="M285.03197,350.96225c4.84816,0 9.69632,-3.65477 9.47256,-9.02504c3.35642,-1.56633 5.37027,-5.29568 4.69899,-8.87587c-1.49174,-7.30954 -7.23495,-4.99734 -37.06979,-19.31806c-2.08844,-0.96963 -3.95312,-2.38679 -4.6244,-4.69899c0.74587,0 -0.5967,-0.07459 42.29089,-0.07459v-10.29302h-34.83218c-5.37027,0 -9.92009,3.05807 -9.69632,8.80128c-3.80394,1.26798 -5.96697,4.92275 -5.14651,9.17421c0.82046,3.95312 4.92275,5.74321 5.14651,5.74321c29.08897,12.60522 29.08897,12.45605 32.29622,13.94779c2.08844,0.82046 3.72936,1.86468 4.54981,4.17688c-0.82046,0.29835 0.67128,0 -42.58924,0v10.44219zM251.54235,348.9484v-6.41449c41.54502,0 39.97869,0.22376 40.94832,0c0,3.95312 -4.10229,6.41449 -7.45871,6.41449zM255.57006,309.49182c0.67128,2.9089 2.98348,4.69899 5.66862,6.11614c8.35376,4.17688 29.76026,12.60522 30.72989,12.82898c2.46137,0.96963 4.54981,1.79009 5.2211,5.07192c0.52211,2.46137 -0.82046,5.07192 -3.13266,6.3399c-0.96963,-2.61055 -2.75972,-4.17688 -5.66862,-5.37027c-1.11881,-0.37294 -11.41183,-5.07192 -32.3708,-13.94779c-0.07459,0 -3.35642,-1.34257 -3.87853,-4.25147c-0.5967,-3.20725 0.74587,-5.66862 3.43101,-6.78743zM297.78636,300.69054v6.26532c-40.72456,0 -39.60575,0.07459 -40.5008,0.07459c0,-4.17688 3.50559,-6.3399 7.68247,-6.3399z" data-paper-data="{&quot;glyphName&quot;:&quot;S&quot;,&quot;glyphIndex&quot;:3,&quot;firstGlyphOfWord&quot;:true,&quot;word&quot;:2}" style="animation-play-state: running;"></path><path d="M351.78743,319.71026h-29.76026v-21.03356h-10.29302v22.97283v0.07459l8.27917,-0.07459v6.3399h-8.27917v22.97283h10.29302v-20.95898h29.76026v20.95898h10.29302v-22.97283h-8.27917v-6.3399h8.27917v-22.97283h-10.29302zM313.748,300.69054h6.26532v19.01971h-6.26532zM313.748,348.9484v-18.94513h6.26532v18.94513zM360.0666,348.9484h-6.26532v-18.94513h6.26532zM322.02717,327.98942v-6.3399h29.76026v6.3399zM353.80128,300.69054h6.26532v19.01971h-6.26532z" data-paper-data="{&quot;glyphName&quot;:&quot;H&quot;,&quot;glyphIndex&quot;:4,&quot;word&quot;:2}" style="animation-play-state: running;"></path><path d="M421.15344,321.72411h2.46137c-0.22376,-1.19339 -0.22376,-1.64092 -0.44752,-2.46137c-2.61055,-12.00852 -13.20192,-20.58604 -25.58338,-20.58604c-12.30687,0 -22.59989,8.42834 -25.4342,20.21311c-0.22376,0.96963 -0.29835,1.56633 -0.52211,2.83431h8.27917c-0.37294,2.01385 -0.37294,4.10229 0,6.26532h-8.27917c0.22376,1.26798 0.14917,1.49174 0.37294,2.01385c2.38679,12.23229 13.05274,20.95898 25.58338,20.95898c12.60522,0 23.04742,-8.72669 25.65796,-20.88439c0.07459,-0.5967 0.07459,-0.89505 0.29835,-2.08844h-8.27917c0.37294,-2.01385 0.37294,-4.10229 0,-6.26532zM397.58391,300.69054c11.33724,0 21.18274,7.90623 23.56953,19.01971h-6.3399c-2.23761,-7.60788 -9.2488,-12.82898 -17.22962,-12.82898c-7.98082,0 -14.91742,5.2211 -17.15503,12.82898h-6.41449c2.38679,-11.11348 12.23229,-19.01971 23.56953,-19.01971zM382.51731,319.71026c2.23761,-6.41449 8.12999,-10.81513 15.0666,-10.81513c7.01119,0 12.90357,4.40064 15.14118,10.81513zM413.2472,321.72411c0.37294,2.01385 0.52211,4.10229 0,6.26532h-31.252c-0.44752,-2.01385 -0.44752,-4.10229 0,-6.26532zM412.72509,329.92869c-2.16303,6.48908 -8.20458,10.81513 -15.14118,10.81513c-6.86201,0 -12.90357,-4.40064 -15.0666,-10.74054zM397.58391,348.9484c-11.33724,0 -21.18274,-7.90623 -23.56953,-18.94513h6.41449c2.16303,7.5333 9.17421,12.7544 17.15503,12.7544c7.98082,0 14.99201,-5.2211 17.22962,-12.82898h6.3399c-2.38679,11.11348 -12.00852,19.01971 -23.56953,19.01971z" data-paper-data="{&quot;glyphName&quot;:&quot;O&quot;,&quot;glyphIndex&quot;:5,&quot;word&quot;:2}" style="animation-play-state: running;"></path><path d="M443.15663,298.67669v8.27917h-8.27917v14.76825h8.27917v6.26532h-8.27917v22.97283h10.29302v-20.95898h24.16622c8.6521,0 15.66329,-7.01119 15.66329,-15.66329c0,-8.6521 -7.01119,-15.66329 -15.66329,-15.66329zM445.17048,308.96971h4.25147h19.91476c2.98348,0 5.44486,2.38679 5.44486,5.37027c0,2.98348 -2.46137,5.37027 -5.44486,5.37027h-24.16622zM436.89132,319.71026v-10.74054h6.26532v10.74054zM443.15663,348.9484h-6.26532v-18.94513h6.26532zM445.17048,327.98942v-6.26532h24.16622c4.17688,0 7.38412,-3.20725 7.38412,-7.38412c0,-3.95312 -3.20725,-7.38412 -7.38412,-7.38412h-19.91476h-4.25147v-6.26532h24.16622c7.5333,0 13.72403,6.11614 13.72403,13.64944c0,7.5333 -6.19073,13.64944 -13.72403,13.64944z" data-paper-data="{&quot;glyphName&quot;:&quot;P&quot;,&quot;glyphIndex&quot;:6,&quot;lastGlyphOfWord&quot;:true,&quot;word&quot;:2}" style="animation-play-state: running;"></path></g><g data-paper-data="{&quot;isIcon&quot;:&quot;true&quot;,&quot;iconType&quot;:&quot;icon&quot;,&quot;rawIconId&quot;:&quot;550249ce-54cb-4e81-b87c-4642a3fcdfdd&quot;,&quot;selectedEffects&quot;:{&quot;container&quot;:&quot;&quot;,&quot;transformation&quot;:&quot;&quot;,&quot;pattern&quot;:&quot;&quot;},&quot;isDetailed&quot;:false,&quot;fillRule&quot;:&quot;evenodd&quot;,&quot;bounds&quot;:{&quot;x&quot;:199.66378211735986,&quot;y&quot;:119.03774601976204,&quot;width&quot;:150.67243576528034,&quot;height&quot;:149.38843205176607},&quot;iconStyle&quot;:&quot;standalone&quot;,&quot;suitableAsStandaloneIcon&quot;:true}" fill-rule="evenodd" style="animation-play-state: running;"><g data-paper-data="{&quot;isPathIcon&quot;:true}" style="animation-play-state: running;"><path d="M274.358,119.03775c-41.25312,0 -74.69422,33.4411 -74.69422,74.69422c0,41.25212 33.4411,74.69422 74.69422,74.69422c17.39705,0 33.4041,-5.94802 46.10113,-15.92005c-9.66903,5.38302 -20.80506,8.45002 -32.65609,8.45002c-37.12711,0 -67.22519,-30.09709 -67.22519,-67.22419c0,-37.12711 30.09809,-67.22519 67.22519,-67.22519c11.85103,0 22.98707,3.06701 32.65609,8.45102c-12.69704,-9.97303 -28.70408,-15.92005 -46.10113,-15.92005z" style="animation-play-state: running;"></path><path d="M290.58105,253.48713c33.0021,0 59.75517,-26.75308 59.75517,-59.75517c0,-33.0021 -26.75308,-59.75517 -59.75517,-59.75517c-13.91704,0 -26.72408,4.75801 -36.88111,12.73604c7.73502,-4.30701 16.64405,-6.76102 26.12508,-6.76102c29.70209,0 53.78016,24.07807 53.78016,53.78016c0,29.70109 -24.07807,53.77916 -53.78016,53.77916c-9.48103,0 -18.39005,-2.45301 -26.12508,-6.76002c10.15703,7.97802 22.96407,12.73604 36.88111,12.73604z" style="animation-play-state: running;"></path><path d="M274.622,195.31397l-3.23401,-25.18007h-23.66607l-6.67402,47.19514h13.14104l4.26501,-30.27109h0.344l3.92201,30.27109h16.58005l12.52104,-30.27109h0.275l-4.26501,30.27109h14.44804l6.67302,-47.19514h-23.80407l-10.25103,25.18007z" style="animation-play-state: running;"></path></g></g></g></g><g fill-rule="none" font-family="none" font-weight="none" font-size="none" text-anchor="none" style="mix-blend-mode: normal; animation-play-state: running;" filter="url(#electric-electric)" fill="none" stroke="#ffffff" opacity="0.5"><g data-paper-data="{&quot;isGlobalGroup&quot;:true,&quot;bounds&quot;:{&quot;x&quot;:65,&quot;y&quot;:119.03774601976204,&quot;width&quot;:420,&quot;height&quot;:231.92450796047598}}" style="animation-play-state: running;"><g data-paper-data="{&quot;isPrimaryText&quot;:true}" fill-rule="nonzero" style="animation-play-state: running;"><path d="M106.32126,298.75128l-16.63292,18.94513l-16.40916,-19.01971v12.97816l-8.27917,-9.32339v48.63079h10.29302v-34.08631l14.54449,16.33458l14.4699,-16.33458v34.08631h10.29302v-48.63079l-8.27917,9.32339zM67.01385,348.9484v-41.32126l6.26532,7.01119v34.31007zM75.29302,313.89246v-9.77091l14.39531,16.63292l14.61907,-16.70751v9.8455l-14.4699,16.25999zM106.32126,314.63833l6.26532,-7.01119v41.32126h-6.26532z" data-paper-data="{&quot;glyphName&quot;:&quot;M&quot;,&quot;glyphIndex&quot;:0,&quot;firstGlyphOfWord&quot;:true,&quot;word&quot;:1}" style="animation-play-state: running;"></path><path d="M136.30527,350.96225v-52.28556h-10.29302v52.28556zM128.02611,348.9484v-48.25786h6.26532v48.25786z" data-paper-data="{&quot;glyphName&quot;:&quot;I&quot;,&quot;glyphIndex&quot;:1,&quot;word&quot;:1}" style="animation-play-state: running;"></path><path d="M200.59936,298.67669h-13.57485l-9.39798,10.21843v11.03889h-5.89238v-0.07459v-10.9643l-9.39798,-10.21843h-13.57485l20.95898,23.04742v6.26532l-20.95898,22.97283h13.57485l9.39798,-10.21843v-10.88972h5.89238v10.88972l9.39798,10.21843h13.57485l-20.95898,-22.97283v-6.26532zM187.91955,300.69054h8.12999l-16.40916,17.97549v-8.95045zM169.7203,309.71558v8.95045l-16.40916,-17.97549h8.12999zM161.44113,348.9484h-8.12999l16.40916,-17.97549v8.95045zM171.73415,321.94787h5.89238v5.89238h-5.89238zM179.64038,339.92336v-8.95045l16.40916,17.97549h-8.12999z" data-paper-data="{&quot;glyphName&quot;:&quot;X&quot;,&quot;glyphIndex&quot;:2,&quot;lastGlyphOfWord&quot;:true,&quot;word&quot;:1}" style="animation-play-state: running;"></path><path d="M285.03197,350.96225c4.84816,0 9.69632,-3.65477 9.47256,-9.02504c3.35642,-1.56633 5.37027,-5.29568 4.69899,-8.87587c-1.49174,-7.30954 -7.23495,-4.99734 -37.06979,-19.31806c-2.08844,-0.96963 -3.95312,-2.38679 -4.6244,-4.69899c0.74587,0 -0.5967,-0.07459 42.29089,-0.07459v-10.29302h-34.83218c-5.37027,0 -9.92009,3.05807 -9.69632,8.80128c-3.80394,1.26798 -5.96697,4.92275 -5.14651,9.17421c0.82046,3.95312 4.92275,5.74321 5.14651,5.74321c29.08897,12.60522 29.08897,12.45605 32.29622,13.94779c2.08844,0.82046 3.72936,1.86468 4.54981,4.17688c-0.82046,0.29835 0.67128,0 -42.58924,0v10.44219zM251.54235,348.9484v-6.41449c41.54502,0 39.97869,0.22376 40.94832,0c0,3.95312 -4.10229,6.41449 -7.45871,6.41449zM255.57006,309.49182c0.67128,2.9089 2.98348,4.69899 5.66862,6.11614c8.35376,4.17688 29.76026,12.60522 30.72989,12.82898c2.46137,0.96963 4.54981,1.79009 5.2211,5.07192c0.52211,2.46137 -0.82046,5.07192 -3.13266,6.3399c-0.96963,-2.61055 -2.75972,-4.17688 -5.66862,-5.37027c-1.11881,-0.37294 -11.41183,-5.07192 -32.3708,-13.94779c-0.07459,0 -3.35642,-1.34257 -3.87853,-4.25147c-0.5967,-3.20725 0.74587,-5.66862 3.43101,-6.78743zM297.78636,300.69054v6.26532c-40.72456,0 -39.60575,0.07459 -40.5008,0.07459c0,-4.17688 3.50559,-6.3399 7.68247,-6.3399z" data-paper-data="{&quot;glyphName&quot;:&quot;S&quot;,&quot;glyphIndex&quot;:3,&quot;firstGlyphOfWord&quot;:true,&quot;word&quot;:2}" style="animation-play-state: running;"></path><path d="M351.78743,319.71026h-29.76026v-21.03356h-10.29302v22.97283v0.07459l8.27917,-0.07459v6.3399h-8.27917v22.97283h10.29302v-20.95898h29.76026v20.95898h10.29302v-22.97283h-8.27917v-6.3399h8.27917v-22.97283h-10.29302zM313.748,300.69054h6.26532v19.01971h-6.26532zM313.748,348.9484v-18.94513h6.26532v18.94513zM360.0666,348.9484h-6.26532v-18.94513h6.26532zM322.02717,327.98942v-6.3399h29.76026v6.3399zM353.80128,300.69054h6.26532v19.01971h-6.26532z" data-paper-data="{&quot;glyphName&quot;:&quot;H&quot;,&quot;glyphIndex&quot;:4,&quot;word&quot;:2}" style="animation-play-state: running;"></path><path d="M421.15344,321.72411h2.46137c-0.22376,-1.19339 -0.22376,-1.64092 -0.44752,-2.46137c-2.61055,-12.00852 -13.20192,-20.58604 -25.58338,-20.58604c-12.30687,0 -22.59989,8.42834 -25.4342,20.21311c-0.22376,0.96963 -0.29835,1.56633 -0.52211,2.83431h8.27917c-0.37294,2.01385 -0.37294,4.10229 0,6.26532h-8.27917c0.22376,1.26798 0.14917,1.49174 0.37294,2.01385c2.38679,12.23229 13.05274,20.95898 25.58338,20.95898c12.60522,0 23.04742,-8.72669 25.65796,-20.88439c0.07459,-0.5967 0.07459,-0.89505 0.29835,-2.08844h-8.27917c0.37294,-2.01385 0.37294,-4.10229 0,-6.26532zM397.58391,300.69054c11.33724,0 21.18274,7.90623 23.56953,19.01971h-6.3399c-2.23761,-7.60788 -9.2488,-12.82898 -17.22962,-12.82898c-7.98082,0 -14.91742,5.2211 -17.15503,12.82898h-6.41449c2.38679,-11.11348 12.23229,-19.01971 23.56953,-19.01971zM382.51731,319.71026c2.23761,-6.41449 8.12999,-10.81513 15.0666,-10.81513c7.01119,0 12.90357,4.40064 15.14118,10.81513zM413.2472,321.72411c0.37294,2.01385 0.52211,4.10229 0,6.26532h-31.252c-0.44752,-2.01385 -0.44752,-4.10229 0,-6.26532zM412.72509,329.92869c-2.16303,6.48908 -8.20458,10.81513 -15.14118,10.81513c-6.86201,0 -12.90357,-4.40064 -15.0666,-10.74054zM397.58391,348.9484c-11.33724,0 -21.18274,-7.90623 -23.56953,-18.94513h6.41449c2.16303,7.5333 9.17421,12.7544 17.15503,12.7544c7.98082,0 14.99201,-5.2211 17.22962,-12.82898h6.3399c-2.38679,11.11348 -12.00852,19.01971 -23.56953,19.01971z" data-paper-data="{&quot;glyphName&quot;:&quot;O&quot;,&quot;glyphIndex&quot;:5,&quot;word&quot;:2}" style="animation-play-state: running;"></path><path d="M443.15663,298.67669v8.27917h-8.27917v14.76825h8.27917v6.26532h-8.27917v22.97283h10.29302v-20.95898h24.16622c8.6521,0 15.66329,-7.01119 15.66329,-15.66329c0,-8.6521 -7.01119,-15.66329 -15.66329,-15.66329zM445.17048,308.96971h4.25147h19.91476c2.98348,0 5.44486,2.38679 5.44486,5.37027c0,2.98348 -2.46137,5.37027 -5.44486,5.37027h-24.16622zM436.89132,319.71026v-10.74054h6.26532v10.74054zM443.15663,348.9484h-6.26532v-18.94513h6.26532zM445.17048,327.98942v-6.26532h24.16622c4.17688,0 7.38412,-3.20725 7.38412,-7.38412c0,-3.95312 -3.20725,-7.38412 -7.38412,-7.38412h-19.91476h-4.25147v-6.26532h24.16622c7.5333,0 13.72403,6.11614 13.72403,13.64944c0,7.5333 -6.19073,13.64944 -13.72403,13.64944z" data-paper-data="{&quot;glyphName&quot;:&quot;P&quot;,&quot;glyphIndex&quot;:6,&quot;lastGlyphOfWord&quot;:true,&quot;word&quot;:2}" style="animation-play-state: running;"></path></g><g data-paper-data="{&quot;isIcon&quot;:&quot;true&quot;,&quot;iconType&quot;:&quot;icon&quot;,&quot;rawIconId&quot;:&quot;550249ce-54cb-4e81-b87c-4642a3fcdfdd&quot;,&quot;selectedEffects&quot;:{&quot;container&quot;:&quot;&quot;,&quot;transformation&quot;:&quot;&quot;,&quot;pattern&quot;:&quot;&quot;},&quot;isDetailed&quot;:false,&quot;fillRule&quot;:&quot;evenodd&quot;,&quot;bounds&quot;:{&quot;x&quot;:199.66378211735986,&quot;y&quot;:119.03774601976204,&quot;width&quot;:150.67243576528034,&quot;height&quot;:149.38843205176607},&quot;iconStyle&quot;:&quot;standalone&quot;,&quot;suitableAsStandaloneIcon&quot;:true}" fill-rule="evenodd" style="animation-play-state: running;"><g data-paper-data="{&quot;isPathIcon&quot;:true}" style="animation-play-state: running;"><path d="M274.358,119.03775c-41.25312,0 -74.69422,33.4411 -74.69422,74.69422c0,41.25212 33.4411,74.69422 74.69422,74.69422c17.39705,0 33.4041,-5.94802 46.10113,-15.92005c-9.66903,5.38302 -20.80506,8.45002 -32.65609,8.45002c-37.12711,0 -67.22519,-30.09709 -67.22519,-67.22419c0,-37.12711 30.09809,-67.22519 67.22519,-67.22519c11.85103,0 22.98707,3.06701 32.65609,8.45102c-12.69704,-9.97303 -28.70408,-15.92005 -46.10113,-15.92005z" style="animation-play-state: running;"></path><path d="M290.58105,253.48713c33.0021,0 59.75517,-26.75308 59.75517,-59.75517c0,-33.0021 -26.75308,-59.75517 -59.75517,-59.75517c-13.91704,0 -26.72408,4.75801 -36.88111,12.73604c7.73502,-4.30701 16.64405,-6.76102 26.12508,-6.76102c29.70209,0 53.78016,24.07807 53.78016,53.78016c0,29.70109 -24.07807,53.77916 -53.78016,53.77916c-9.48103,0 -18.39005,-2.45301 -26.12508,-6.76002c10.15703,7.97802 22.96407,12.73604 36.88111,12.73604z" style="animation-play-state: running;"></path><path d="M274.622,195.31397l-3.23401,-25.18007h-23.66607l-6.67402,47.19514h13.14104l4.26501,-30.27109h0.344l3.92201,30.27109h16.58005l12.52104,-30.27109h0.275l-4.26501,30.27109h14.44804l6.67302,-47.19514h-23.80407l-10.25103,25.18007z" style="animation-play-state: running;"></path></g></g></g></g><g fill-rule="none" font-family="none" font-weight="none" font-size="none" text-anchor="none" style="mix-blend-mode: normal; animation-play-state: running;" filter="url(#electric-filter)" fill="#ffffff" stroke="none"><g data-paper-data="{&quot;isGlobalGroup&quot;:true,&quot;bounds&quot;:{&quot;x&quot;:65,&quot;y&quot;:119.03774601976204,&quot;width&quot;:420,&quot;height&quot;:231.92450796047598}}" style="animation-play-state: running;"><g data-paper-data="{&quot;isPrimaryText&quot;:true}" fill-rule="nonzero" style="animation-play-state: running;"><path d="M106.32126,298.75128l-16.63292,18.94513l-16.40916,-19.01971v12.97816l-8.27917,-9.32339v48.63079h10.29302v-34.08631l14.54449,16.33458l14.4699,-16.33458v34.08631h10.29302v-48.63079l-8.27917,9.32339zM67.01385,348.9484v-41.32126l6.26532,7.01119v34.31007zM75.29302,313.89246v-9.77091l14.39531,16.63292l14.61907,-16.70751v9.8455l-14.4699,16.25999zM106.32126,314.63833l6.26532,-7.01119v41.32126h-6.26532z" data-paper-data="{&quot;glyphName&quot;:&quot;M&quot;,&quot;glyphIndex&quot;:0,&quot;firstGlyphOfWord&quot;:true,&quot;word&quot;:1}" style="animation-play-state: running;"></path><path d="M136.30527,350.96225v-52.28556h-10.29302v52.28556zM128.02611,348.9484v-48.25786h6.26532v48.25786z" data-paper-data="{&quot;glyphName&quot;:&quot;I&quot;,&quot;glyphIndex&quot;:1,&quot;word&quot;:1}" style="animation-play-state: running;"></path><path d="M200.59936,298.67669h-13.57485l-9.39798,10.21843v11.03889h-5.89238v-0.07459v-10.9643l-9.39798,-10.21843h-13.57485l20.95898,23.04742v6.26532l-20.95898,22.97283h13.57485l9.39798,-10.21843v-10.88972h5.89238v10.88972l9.39798,10.21843h13.57485l-20.95898,-22.97283v-6.26532zM187.91955,300.69054h8.12999l-16.40916,17.97549v-8.95045zM169.7203,309.71558v8.95045l-16.40916,-17.97549h8.12999zM161.44113,348.9484h-8.12999l16.40916,-17.97549v8.95045zM171.73415,321.94787h5.89238v5.89238h-5.89238zM179.64038,339.92336v-8.95045l16.40916,17.97549h-8.12999z" data-paper-data="{&quot;glyphName&quot;:&quot;X&quot;,&quot;glyphIndex&quot;:2,&quot;lastGlyphOfWord&quot;:true,&quot;word&quot;:1}" style="animation-play-state: running;"></path><path d="M285.03197,350.96225c4.84816,0 9.69632,-3.65477 9.47256,-9.02504c3.35642,-1.56633 5.37027,-5.29568 4.69899,-8.87587c-1.49174,-7.30954 -7.23495,-4.99734 -37.06979,-19.31806c-2.08844,-0.96963 -3.95312,-2.38679 -4.6244,-4.69899c0.74587,0 -0.5967,-0.07459 42.29089,-0.07459v-10.29302h-34.83218c-5.37027,0 -9.92009,3.05807 -9.69632,8.80128c-3.80394,1.26798 -5.96697,4.92275 -5.14651,9.17421c0.82046,3.95312 4.92275,5.74321 5.14651,5.74321c29.08897,12.60522 29.08897,12.45605 32.29622,13.94779c2.08844,0.82046 3.72936,1.86468 4.54981,4.17688c-0.82046,0.29835 0.67128,0 -42.58924,0v10.44219zM251.54235,348.9484v-6.41449c41.54502,0 39.97869,0.22376 40.94832,0c0,3.95312 -4.10229,6.41449 -7.45871,6.41449zM255.57006,309.49182c0.67128,2.9089 2.98348,4.69899 5.66862,6.11614c8.35376,4.17688 29.76026,12.60522 30.72989,12.82898c2.46137,0.96963 4.54981,1.79009 5.2211,5.07192c0.52211,2.46137 -0.82046,5.07192 -3.13266,6.3399c-0.96963,-2.61055 -2.75972,-4.17688 -5.66862,-5.37027c-1.11881,-0.37294 -11.41183,-5.07192 -32.3708,-13.94779c-0.07459,0 -3.35642,-1.34257 -3.87853,-4.25147c-0.5967,-3.20725 0.74587,-5.66862 3.43101,-6.78743zM297.78636,300.69054v6.26532c-40.72456,0 -39.60575,0.07459 -40.5008,0.07459c0,-4.17688 3.50559,-6.3399 7.68247,-6.3399z" data-paper-data="{&quot;glyphName&quot;:&quot;S&quot;,&quot;glyphIndex&quot;:3,&quot;firstGlyphOfWord&quot;:true,&quot;word&quot;:2}" style="animation-play-state: running;"></path><path d="M351.78743,319.71026h-29.76026v-21.03356h-10.29302v22.97283v0.07459l8.27917,-0.07459v6.3399h-8.27917v22.97283h10.29302v-20.95898h29.76026v20.95898h10.29302v-22.97283h-8.27917v-6.3399h8.27917v-22.97283h-10.29302zM313.748,300.69054h6.26532v19.01971h-6.26532zM313.748,348.9484v-18.94513h6.26532v18.94513zM360.0666,348.9484h-6.26532v-18.94513h6.26532zM322.02717,327.98942v-6.3399h29.76026v6.3399zM353.80128,300.69054h6.26532v19.01971h-6.26532z" data-paper-data="{&quot;glyphName&quot;:&quot;H&quot;,&quot;glyphIndex&quot;:4,&quot;word&quot;:2}" style="animation-play-state: running;"></path><path d="M421.15344,321.72411h2.46137c-0.22376,-1.19339 -0.22376,-1.64092 -0.44752,-2.46137c-2.61055,-12.00852 -13.20192,-20.58604 -25.58338,-20.58604c-12.30687,0 -22.59989,8.42834 -25.4342,20.21311c-0.22376,0.96963 -0.29835,1.56633 -0.52211,2.83431h8.27917c-0.37294,2.01385 -0.37294,4.10229 0,6.26532h-8.27917c0.22376,1.26798 0.14917,1.49174 0.37294,2.01385c2.38679,12.23229 13.05274,20.95898 25.58338,20.95898c12.60522,0 23.04742,-8.72669 25.65796,-20.88439c0.07459,-0.5967 0.07459,-0.89505 0.29835,-2.08844h-8.27917c0.37294,-2.01385 0.37294,-4.10229 0,-6.26532zM397.58391,300.69054c11.33724,0 21.18274,7.90623 23.56953,19.01971h-6.3399c-2.23761,-7.60788 -9.2488,-12.82898 -17.22962,-12.82898c-7.98082,0 -14.91742,5.2211 -17.15503,12.82898h-6.41449c2.38679,-11.11348 12.23229,-19.01971 23.56953,-19.01971zM382.51731,319.71026c2.23761,-6.41449 8.12999,-10.81513 15.0666,-10.81513c7.01119,0 12.90357,4.40064 15.14118,10.81513zM413.2472,321.72411c0.37294,2.01385 0.52211,4.10229 0,6.26532h-31.252c-0.44752,-2.01385 -0.44752,-4.10229 0,-6.26532zM412.72509,329.92869c-2.16303,6.48908 -8.20458,10.81513 -15.14118,10.81513c-6.86201,0 -12.90357,-4.40064 -15.0666,-10.74054zM397.58391,348.9484c-11.33724,0 -21.18274,-7.90623 -23.56953,-18.94513h6.41449c2.16303,7.5333 9.17421,12.7544 17.15503,12.7544c7.98082,0 14.99201,-5.2211 17.22962,-12.82898h6.3399c-2.38679,11.11348 -12.00852,19.01971 -23.56953,19.01971z" data-paper-data="{&quot;glyphName&quot;:&quot;O&quot;,&quot;glyphIndex&quot;:5,&quot;word&quot;:2}" style="animation-play-state: running;"></path><path d="M443.15663,298.67669v8.27917h-8.27917v14.76825h8.27917v6.26532h-8.27917v22.97283h10.29302v-20.95898h24.16622c8.6521,0 15.66329,-7.01119 15.66329,-15.66329c0,-8.6521 -7.01119,-15.66329 -15.66329,-15.66329zM445.17048,308.96971h4.25147h19.91476c2.98348,0 5.44486,2.38679 5.44486,5.37027c0,2.98348 -2.46137,5.37027 -5.44486,5.37027h-24.16622zM436.89132,319.71026v-10.74054h6.26532v10.74054zM443.15663,348.9484h-6.26532v-18.94513h6.26532zM445.17048,327.98942v-6.26532h24.16622c4.17688,0 7.38412,-3.20725 7.38412,-7.38412c0,-3.95312 -3.20725,-7.38412 -7.38412,-7.38412h-19.91476h-4.25147v-6.26532h24.16622c7.5333,0 13.72403,6.11614 13.72403,13.64944c0,7.5333 -6.19073,13.64944 -13.72403,13.64944z" data-paper-data="{&quot;glyphName&quot;:&quot;P&quot;,&quot;glyphIndex&quot;:6,&quot;lastGlyphOfWord&quot;:true,&quot;word&quot;:2}" style="animation-play-state: running;"></path></g><g data-paper-data="{&quot;isIcon&quot;:&quot;true&quot;,&quot;iconType&quot;:&quot;icon&quot;,&quot;rawIconId&quot;:&quot;550249ce-54cb-4e81-b87c-4642a3fcdfdd&quot;,&quot;selectedEffects&quot;:{&quot;container&quot;:&quot;&quot;,&quot;transformation&quot;:&quot;&quot;,&quot;pattern&quot;:&quot;&quot;},&quot;isDetailed&quot;:false,&quot;fillRule&quot;:&quot;evenodd&quot;,&quot;bounds&quot;:{&quot;x&quot;:199.66378211735986,&quot;y&quot;:119.03774601976204,&quot;width&quot;:150.67243576528034,&quot;height&quot;:149.38843205176607},&quot;iconStyle&quot;:&quot;standalone&quot;,&quot;suitableAsStandaloneIcon&quot;:true}" fill-rule="evenodd" style="animation-play-state: running;"><g data-paper-data="{&quot;isPathIcon&quot;:true}" style="animation-play-state: running;"><path d="M274.358,119.03775c-41.25312,0 -74.69422,33.4411 -74.69422,74.69422c0,41.25212 33.4411,74.69422 74.69422,74.69422c17.39705,0 33.4041,-5.94802 46.10113,-15.92005c-9.66903,5.38302 -20.80506,8.45002 -32.65609,8.45002c-37.12711,0 -67.22519,-30.09709 -67.22519,-67.22419c0,-37.12711 30.09809,-67.22519 67.22519,-67.22519c11.85103,0 22.98707,3.06701 32.65609,8.45102c-12.69704,-9.97303 -28.70408,-15.92005 -46.10113,-15.92005z" style="animation-play-state: running;"></path><path d="M290.58105,253.48713c33.0021,0 59.75517,-26.75308 59.75517,-59.75517c0,-33.0021 -26.75308,-59.75517 -59.75517,-59.75517c-13.91704,0 -26.72408,4.75801 -36.88111,12.73604c7.73502,-4.30701 16.64405,-6.76102 26.12508,-6.76102c29.70209,0 53.78016,24.07807 53.78016,53.78016c0,29.70109 -24.07807,53.77916 -53.78016,53.77916c-9.48103,0 -18.39005,-2.45301 -26.12508,-6.76002c10.15703,7.97802 22.96407,12.73604 36.88111,12.73604z" style="animation-play-state: running;"></path><path d="M274.622,195.31397l-3.23401,-25.18007h-23.66607l-6.67402,47.19514h13.14104l4.26501,-30.27109h0.344l3.92201,30.27109h16.58005l12.52104,-30.27109h0.275l-4.26501,30.27109h14.44804l6.67302,-47.19514h-23.80407l-10.25103,25.18007z" style="animation-play-state: running;"></path></g></g></g></g></svg>